<?xml version="1.0" encoding="utf-8"?>
<!-- Generator: Adobe Illustrator 15.1.0, SVG Export Plug-In . SVG Version: 6.00 Build 0)  -->
<!DOCTYPE svg PUBLIC "-//W3C//DTD SVG 1.1//EN" "http://www.w3.org/Graphics/SVG/1.1/DTD/svg11.dtd">
<svg version="1.1" id="Layer_1" xmlns="http://www.w3.org/2000/svg" xmlns:xlink="http://www.w3.org/1999/xlink" x="0px" y="0px"
	 width="18px" height="21.083px" viewBox="0 0 18 21.083" enable-background="new 0 0 18 21.083" xml:space="preserve">
<g>
	<path fill="#E2493E" d="M9.007,0L9.007,0H8.999H8.991C4.025,0.006,0,4.036,0,9.005c0,2.709,1.135,4.865,3.086,6.789
		c2.573,2.538,4.961,4.896,4.961,4.896c0.262,0.256,0.603,0.387,0.944,0.393l0,0c0.004,0,0.006,0,0.008,0s0.004,0,0.008,0l0,0
		c0.342-0.006,0.684-0.137,0.945-0.393c0,0,2.389-2.357,4.961-4.896c1.951-1.927,3.086-4.081,3.086-6.789
		C17.999,4.036,13.974,0.006,9.007,0"/>
	<path fill="#FFFFFF" d="M16.749,9.005c0,4.282-3.469,7.751-7.75,7.751c-4.279,0-7.75-3.47-7.75-7.751
		c0-4.279,3.47-7.749,7.75-7.749C13.28,1.256,16.749,4.726,16.749,9.005"/>
</g>
</svg>
