<?xml version="1.0" encoding="utf-8"?>
<!-- Generator: Adobe Illustrator 15.1.0, SVG Export Plug-In . SVG Version: 6.00 Build 0)  -->
<!DOCTYPE svg PUBLIC "-//W3C//DTD SVG 1.1//EN" "http://www.w3.org/Graphics/SVG/1.1/DTD/svg11.dtd">
<svg version="1.1" id="Layer_1" xmlns="http://www.w3.org/2000/svg" xmlns:xlink="http://www.w3.org/1999/xlink" x="0px" y="0px"
	 width="18px" height="21.083px" viewBox="0 0 18 21.083" enable-background="new 0 0 18 21.083" xml:space="preserve">
<g>
	<path fill="#229CD8" d="M9.007,0L9.007,0H9H8.993C4.025,0.007,0,4.037,0,9.007c0,2.708,1.136,4.863,3.086,6.788
		c2.573,2.538,4.962,4.895,4.962,4.895c0.26,0.258,0.602,0.388,0.945,0.394l0,0c0.002,0,0.004,0,0.007,0s0.005,0,0.007,0l0,0
		c0.344-0.005,0.685-0.136,0.945-0.394c0,0,2.389-2.356,4.962-4.896C16.864,13.869,18,11.714,18,9.006
		C18,4.037,13.975,0.007,9.007,0"/>
	<path fill="#FFFFFF" d="M16.751,9.006c0,4.281-3.471,7.751-7.751,7.751c-4.28,0-7.75-3.47-7.75-7.751c0-4.28,3.471-7.75,7.75-7.75
		C13.28,1.256,16.751,4.726,16.751,9.006"/>
</g>
</svg>
