<?xml version="1.0" encoding="utf-8"?>
<!-- Generator: Adobe Illustrator 15.1.0, SVG Export Plug-In . SVG Version: 6.00 Build 0)  -->
<!DOCTYPE svg PUBLIC "-//W3C//DTD SVG 1.0//EN" "http://www.w3.org/TR/2001/REC-SVG-20010904/DTD/svg10.dtd">
<svg version="1.0" id="Layer_1" xmlns="http://www.w3.org/2000/svg" xmlns:xlink="http://www.w3.org/1999/xlink" x="0px" y="0px"
	 width="25.986px" height="31.372px" viewBox="0 0 25.986 31.372" enable-background="new 0 0 25.986 31.372" xml:space="preserve">
<g>
	<g>
		<path fill="#1E9CD8" d="M13.002,2.53L13.002,2.53h-0.008h-0.01C6.785,2.539,1.761,7.568,1.761,13.77
			c0,3.379,1.417,6.069,3.852,8.471c3.211,3.168,6.192,6.109,6.192,6.109c0.325,0.32,0.751,0.484,1.179,0.49l0,0
			c0.004,0,0.006,0,0.01,0c0.002,0,0.006,0,0.008,0l0,0c0.429-0.006,0.854-0.17,1.179-0.49c0,0,2.981-2.941,6.193-6.109
			c2.436-2.402,3.851-5.092,3.851-8.471C24.224,7.568,19.203,2.539,13.002,2.53"/>
		<path fill="#FFFFFF" d="M22.666,13.77c0,5.342-4.33,9.672-9.672,9.672S3.32,19.112,3.32,13.77c0-5.342,4.332-9.672,9.674-9.672
			S22.666,8.428,22.666,13.77"/>
	</g>
	<rect x="0" fill="none" width="25.986" height="31.372"/>
</g>
</svg>
